<svg version="1.2" xmlns="http://www.w3.org/2000/svg" viewBox="0 0 164 55" width="164" height="55">
	<title>New Project</title>
	<style>
		.s0 { fill: #ff3017 } 
		.s1 { fill: #ffffff } 
	</style>
	<path id="Path 5019" class="s0" d="m163.5 38l-11.6 7.7c0 0-1.4-3.3-4.5-8.2 0 1.2-0.2 2-0.2 2-2 15.9-17.6 15.5-17.6 15.5h-95.6c0 0-15.4 0.3-17.5-15.5 0 0-0.1-0.9-0.2-2.2-3.1 5.1-4.5 8.6-4.5 8.6l-11.6-7.9c0 0 28.2-37.7 81.4-37.7 53.2 0 81.9 37.7 81.9 37.7z"/>
	<path id="Path 5020" class="s1" d="m144.8 39.3c0 0-2 12.1-15.5 12.1h-95.4c-13.4 0-15.2-12.2-15.2-12.2-0.6-3.3 0.1-5.5 1.1-7 9.6-12.7 28.7-29.8 61.8-29.8 33.3 0 52.6 17.3 62.2 30 1.1 1.4 1.5 3.7 1 6.9z"/>
	<path id="Path 5021" fill-rule="evenodd" class="s0" d="m135.4 38.1l0.9 1.6c0 0-1 1.2-4.5 2.6-3.5 1.4-5-0.2-5.4-0.9-0.4-0.7-1-0.1-1-0.1-2.7 1.8-5.6 2.1-7.3 0.5q-0.5-0.6-0.8-1.3c-0.7 0.5-1.8 1.1-3.4 1.7-3.5 1.4-5-0.2-5.4-0.9-0.3-0.7-1-0.1-1-0.1-2.6 1.8-5.6 2.1-7.2 0.5-0.7-0.6-1-1.4-1.1-2.4-1.5 1.2-4.9 3.5-9.7 3.5-3.3 0-5.2-1-6.3-2.4-1.1 0.5-3.4 1.4-5.7 2-3.1 0.9-3.8-0.2-4.2-0.7-0.4-0.5-1.3-4.2-1.3-4.2-0.3-1-0.8-0.5-0.8-0.5l-2 1.2-2.2 4.5h-4.4l1-1.9c-0.9 0.5-1.9 1-3 1.4-3.5 1.4-5-0.2-5.4-0.9-0.4-0.7-1-0.1-1-0.1-2.7 1.8-5.6 2.1-7.3 0.5-2-1.9-1.3-6.1 1.7-9.2 3-3.1 7.9-4.3 10.4-2l0.7-1.2h4.4l-4.3 9c0 0-0.4 0.9 0 1.3 0.5 0.5 1.5 0 1.5 0 1.2-0.5 3-1.5 3.8-2l7.4-15h4.4l-4.5 9.3c0 0-0.5 1.3 0.7 0.7l5.7-3.4h4.5l-7.4 4.9c0 0 0.7 4.5 1 5 0.2 0.5 0.4 1.4 2.2 0.8 0 0 1.2-0.2 3.3-1.3-0.2-1.1-0.1-2.2 0.3-3.3 1.1-3.6 5.7-7.4 11-7 0 0 3.2 0.1 3.5 2.4 0.2 2.4-2.4 5.5-9.5 8.1 0 0 0.8 3.1 7 1.2 0 0 3-0.7 5.4-4.9q0.1-0.2 0.3-0.4 0-0.1 0.1-0.2 0.6-1 1.5-2c3-3.1 7.8-4.3 10.4-2l4-7.9h4.4l-7.7 15.7c0 0-0.4 0.9 0.1 1.3 0.4 0.5 1.5 0 1.5 0 1-0.4 1.8-0.9 2.3-1.2 0.2-1.9 1.1-4 2.9-5.8 3-3.1 7.8-4.3 10.3-2l0.7-1.3h4.4l-4.3 9.1c0 0-0.4 0.9 0.1 1.3 0.4 0.5 1.4 0 1.4 0 1.7-0.6 2.8-1.5 2.9-1.6zm-78.5-6.3c-1.1-0.8-3.3 0.3-4.8 2.4-1.5 2.1-1.8 4.5-0.7 5.3 1.2 0.8 3.3-0.3 4.8-2.4 1.5-2.1 1.8-4.5 0.7-5.3zm31.5 4.8c2-0.7 3.7-2.6 4.4-3.7 0.9-1.2 0.2-1.9 0.2-1.9-0.5-0.4-1.4-0.1-1.4-0.1-3.2 1.3-4.2 4.7-4.2 4.7-0.7 1.7 1 1 1 1zm21.9-4.8c-1.2-0.8-3.3 0.3-4.8 2.4-1.6 2.1-1.9 4.5-0.7 5.3 1.1 0.8 3.3-0.3 4.8-2.4 1.5-2.1 1.8-4.5 0.7-5.3zm17.8 0.1c-1.1-0.8-3.2 0.2-4.8 2.4-1.5 2.1-1.8 4.5-0.7 5.3 1.2 0.8 3.3-0.3 4.8-2.4 1.6-2.2 1.9-4.5 0.7-5.3zm-81.6-5.8l-8.2 16.6h-5.2l8.1-16.6h-7.9l1.6-3.4h20.4l-1.6 3.4z"/>
</svg>