<svg xmlns="http://www.w3.org/2000/svg" width="104.957" height="105.113" viewBox="0 0 104.957 105.113">
  <g id="Group_68" data-name="Group 68" transform="translate(-1566.32 -50.849)">
    <g id="Artifact">
      <g id="Group_1" data-name="Group 1">
        <path id="Path_21" data-name="Path 21" d="M0,0A50.66,50.66,0,0,0,50.563-50.641,50.66,50.66,0,0,0,0-101.282,50.659,50.659,0,0,0-50.563-50.641,50.659,50.659,0,0,0,0,0" transform="translate(1618.799 154.046)" fill="#0065a1"/>
        <path id="Path_22" data-name="Path 22" d="M0,0A50.66,50.66,0,0,0,50.563-50.641,50.66,50.66,0,0,0,0-101.282,50.659,50.659,0,0,0-50.563-50.641,50.659,50.659,0,0,0,0,0Z" transform="translate(1618.799 154.046)" fill="none" stroke="#fff" stroke-width="3.831"/>
      </g>
      <path id="Path_24" data-name="Path 24" d="M0,0,24.463-24.473,0-48.945" transform="translate(1593.271 127.877)" fill="none" stroke="#fff" stroke-miterlimit="10" stroke-width="3.203"/>
    </g>
    <g id="Artifact-2" data-name="Artifact">
      <path id="Path_25" data-name="Path 25" d="M0,0-24.463,24.473,0,48.945" transform="translate(1644.327 78.932)" fill="none" stroke="#fff" stroke-miterlimit="10" stroke-width="3.203"/>
    </g>
  </g>
</svg>