<svg version="1.2" xmlns="http://www.w3.org/2000/svg" viewBox="0 0 146 146" width="146" height="146">
	<title>New Project</title>
	<defs>
		<clipPath clipPathUnits="userSpaceOnUse" id="cp1">
			<path d="m-6.61-8.12h169.6v162.71h-169.6z"/>
		</clipPath>
	</defs>
	<style>
		.s0 { fill: none;stroke: #ee7622;stroke-width: 7.2 } 
		.s1 { fill: #ee7622 } 
		.s2 { fill: none;stroke: #ee7622;stroke-width: 4.3 } 
	</style>
	<g id="Mask" clip-path="url(#cp1)">
		<path id="Path 4605" class="s0" d="m376.7 73.2c0 41.3-33.6 74.9-74.9 74.9-41.3 0-74.9-33.6-74.9-74.9 0-41.2 33.6-74.8 74.9-74.8 41.3 0 74.9 33.6 74.9 74.8z"/>
		<path id="Path 4606" class="s1" d="m8.4 23.4c0.3-0.1 33.7-6.3 55-19.7l5-3.1 5 3.1c14.6 9.2 34.7 15 46.4 17.8q-2.7 1.7-5.4 3.6-0.8 0.6-1.7 1.3c-12.5-3.4-29.6-9-42.7-17.2l-1.6-1-1.5 1c-22.5 14.1-57 20.5-57.4 20.5l-2.3 0.5v2.4c0 26.4 5.2 63 30 87.6 15 14.8 30 18.1 30.6 18.3l0.6 0.1 0.6-0.1c0.6-0.1 14.5-3.2 29-16.7 23.5-22 30.1-54.6 31.4-78.4q3.4-3.4 6.7-6.5c-0.6 27.2-6.9 63.1-31.9 87.9-16.4 16.1-33.1 19.9-33.8 20l-2 0.4-1.9-0.4c-0.7-0.1-17.5-3.9-33.8-20-26.4-26.2-32-64.6-32-92.2v-7.8zm33.4 46.4c0 0 7.5 2.8 23.5 14 0 0 47.1-57.7 80.8-65.5 0 0-35.4 21.2-73.4 89.6 0 0-22.5-17.4-39.1-24.3z"/>
		<path id="Path 4607" class="s2" d="m-193.4 104.4h81.2"/>
	</g>
</svg>