<svg version="1.2" xmlns="http://www.w3.org/2000/svg" viewBox="0 0 157 157" width="157" height="157">
	<title>New Project</title>
	<defs>
		<clipPath clipPathUnits="userSpaceOnUse" id="cp1">
			<path d="m-3.61-2.79h163.43v162.72h-163.43z"/>
		</clipPath>
	</defs>
	<style>
		.s0 { fill: none;stroke: #ee7622;stroke-width: 7.2 } 
		.s1 { fill: none;stroke: #ee7622;stroke-width: 4.3 } 
		.s2 { fill: #ee7622 } 
		.s3 { fill: #ffffff } 
	</style>
	<g id="Mask" clip-path="url(#cp1)">
		<path id="Path 4610" class="s0" d="m153.3 78.6c0 41.3-33.5 74.8-74.8 74.8-41.3 0-74.9-33.5-74.9-74.8 0-41.3 33.6-74.9 74.9-74.9 41.3 0 74.8 33.6 74.8 74.9z"/>
		<path id="Path 4611" class="s1" d="m-416.7 109.7h81.1"/>
		<path id="Path 4612" fill-rule="evenodd" class="s2" d="m43.5 77.8l17-17.1 17.1-17c3.8-3.9 9-6.1 14.6-6.1 5.5 0 10.7 2.2 14.6 6.1 3.9 3.9 6 9 6 14.6 0 5.5-2.1 10.7-6 14.6l-2.7 2.6c5.3 3.7 8.7 9.9 8.7 16.9 0 11.3-9.2 20.6-20.6 20.6-7 0-13.1-3.4-16.9-8.7l-2.6 2.7c-3.9 3.9-9.1 6-14.6 6-5.6 0-10.7-2.1-14.6-6-3.9-3.9-6.1-9.1-6.1-14.6 0-5.6 2.2-10.8 6.1-14.6zm47.1 31.9v-34.7c-8.9 0.9-15.8 8.3-15.8 17.4 0 9 6.9 16.4 15.8 17.3zm19-17.3c0-9.1-7-16.5-15.8-17.4v34.7c8.8-0.9 15.8-8.3 15.8-17.3zm-63.8 12.2c3.3 3.3 7.6 5.1 12.3 5.1 4.6 0 9-1.8 12.3-5.1l3.2-3.2c-1.3-2.7-2.1-5.8-2.1-9 0-5.2 1.9-9.8 5-13.4l-14.8-14.8-15.9 15.9c-3.3 3.2-5.1 7.6-5.1 12.3 0 4.6 1.8 9 5.1 12.2z"/>
		<path id="Path 4613" class="s3" d="m97.6 52.8c-0.4 0-0.8-0.2-1.1-0.5-3.1-3-8-3-11 0-0.6 0.6-1.6 0.6-2.3 0-0.6-0.6-0.6-1.6 0-2.2 4.3-4.3 11.2-4.3 15.5 0 0.6 0.6 0.6 1.6 0 2.2-0.3 0.3-0.7 0.5-1.1 0.5z"/>
	</g>
</svg>